<svg xmlns="http://www.w3.org/2000/svg" id="flag-icons-je" viewBox="0 0 512 512">
  <path fill="#fff" d="M0 0h512v512H0V0Z"/>
  <path stroke="#cf142b" stroke-miterlimit="133.3" stroke-width="50" d="m0 0 512 512M0 512 512 0"/>
  <path fill="#cf142b" stroke="maroon" stroke-miterlimit="140.8" stroke-width=".4" d="M295.6 55.3c9.6 39.2 4.3 87.6-39.4 114.5-43.7-27-49-75.3-39.4-114.5 10.3-9.3 57.2-15.1 78.7 0Z"/>
  <path fill="gold" stroke="#806600" stroke-miterlimit="135.2" stroke-width=".2" d="M234 78.6a6 6 0 0 1-2.1-.4c-.6-.5-1-1-1.3-1.7-.8 0-1.6.2-2.4 0-.8-.2-1.4-.6-2-1a3 3 0 0 0 2-.8c-.7 0-1.5-.2-2.2-.4a7 7 0 0 1-1.8-1.2c.6-.1 1.3-.1 1.9-.8-.7 0-1.4 0-2-.2-.7-.3-1.2-.7-1.7-1.1.7 0 1.5-.3 2-1-.7.1-1.4 0-2-.1l-2.2-1.4c.7 0 1.5-.2 2.2-.6l-.4-1c-.6-1-1.7-.6-2.5-1-.7-.2-1.1-.8-1.2-1.5 0-.8.4-2 2.2-1.8-1-1.4 0-2.4 1-2.8 1-.4 1.7-.3 2.4 1.3a5 5 0 0 1 1.3-.8c.6-.3 1.2 0 1.6.6v1c-.3.6-.8.9-1 1.6-.2.8.5 2.3.5 2.3 2.4 2.4 5 4.6 7.6 6.8h3.7l.3 5.9H234Z"/>
  <path fill="#377bc8" stroke="#2c5aa0" stroke-miterlimit="135.2" stroke-width=".2" d="M224.3 59c.5.7.7 1.5.5 2.3.3.3.6.4 1 .3.4-.2.6-.7.6-1.1-.4-.3-.5-1-2.1-1.4Zm-4 .5a4 4 0 0 0-1 .2c.7.3 1.2.9 1.4 1.7.3.2.6 0 1 0 .3-.4.3-1 0-1.4-.3 0-.6-.4-1.4-.4v-.1Zm-1.2 3.8c-.5 0-1-.3-2.4.7.8 0 1.6.3 2 1 .4 0 .7-.2.8-.5.1-.5 0-1-.4-1.2Z"/>
  <path fill="gold" stroke="#806600" stroke-miterlimit="135.2" stroke-width=".2" d="M254 81.3c-.5-.2-1.3-1-2-1-.6 0-1.2.3-1.5.9-.1.4 0 1 .4 1.3l1.2.8a4 4 0 0 0-.8 1.4c0 .3 0 .7.4 1 .4.5.5.6 1 .7h1.4c0 .3 0 .7.2 1 .3.6 1 1 1.8 1 .4 0 .9-.3 1-.7.4-.3.3-1.2.7-1.6l1.7-1.5c.7.4.6 1 .6 1.7l1.3-1.1c.3-.5.4-1.1.5-1.7.6.4.8 1.2.7 1.9a7 7 0 0 0 1.5-1.2l.7-1.7c.5.6.6 1.3.4 2l1.5-1.4.4-1.4c1.5 0 2.4-.6 2.5-1.2 0-.5-.6-1.2-1.7-1.4l-.6-1.2a1 1 0 0 1 0-1 4 4 0 0 1 1.4-1.7l2.5-1.4-.5-2.5-6-1-6.4 1.7c1.2.5 3.8 2.4 3.6 3 0 .3-.6.6-1 1-.1.2 0 .6.2.9.3.4 1 .4 1.2.8.2.2.2.6 0 .9-.4.6-2 .8-2.6 1.2a28 28 0 0 0-3.6 1.8c-.7 0-1.4 0-2-.3Z"/>
  <path fill="gold" stroke="#806600" stroke-miterlimit="135.2" stroke-width=".2" d="M267.9 73.3s-.1 2-1 2.6c-.4.2-.9.3-1.3.2a2 2 0 0 1-1-1l-.1-1-2-.6c-1.1 0-2.2.3-3.2.6a7.2 7.2 0 0 1 2.3-3l3.5-.1 2.8 2.3Z"/>
  <path fill="gold" d="M277.2 59.3c1-.1 3-.5 3.8-1.2l1.2-1.2c-.2 2-1.2 3.3-3.4 4-1.8.7-3.7 1-5.5.8a25 25 0 0 1-3.3-.7c1 1.3.5 2.2-1 2.8 0 0 .3-1.2-.2-1.4-1-.3-2 0-3 .7-1 .4-1.9.6-2.8.6-1 0-2.1 0-3.2-.4-.7-.3-2-1.3-2.5-1.2-1.2.3-2.6.4-3.3 1.3a1 1 0 0 0 0 1c.5.7 1.4 1.2 2.4 1.4 2.4.6 5 .6 7.4.2 2.7-.4 5.9-1.1 8.6-1.6l8-1.7c2.7-.6 5.4-1 8-.8 4.7 0 6.3 2.3 6 4.8 0 2.6-3 3.8-5.3 4.5-4.3 1.2-10.1.5-13.8.4L277 73c.7.5 1 1.6 1.8 1.8 1 .4 2.8-.3 4-.4h4.4c.3-.3.7-.6 1.2-.7h1c.5.2.9.7.7 1.8.2.2.5.4.9.5h1.5l1.4.8c-.4 0-1 .2-1.3.4-.3.2-.5.4-.6.7.6 0 1.2 0 1.8.2l1 .9h-1l-.8.7s1.5 0 2 .3l1 1a6 6 0 0 0-1.2 0l-.7.4 1.4 1c.3.5.4 1 .5 1.5a7 7 0 0 0-1-.6h-.7l.2 2c0 .5.8 1 1 1.5 0 .3 0 .7-.2 1a2 2 0 0 1-2 .7l-1-.6-.6 1c-.4.3-.6.2-1.2.2-.5 0-1-.1-1.2-.4a4 4 0 0 1-.6-1.4l-1.4.3a2 2 0 0 1-1.3-.7c-.4-.5-.3-1.2 0-1.6.5-.4 1.6-.4 2.2-.6.5-.3 1-.7 1.4-1.2l-3.4-2.7a23 23 0 0 1-1.5-2s-3 1-4 1c-2 .2-4 .2-5.8 0-4.3 0-7-6-11-7.3-1-.4-2-.4-3 0-4.4.9-9.2 6-13.6 7-2 .5-3.8.7-5.6.7a5 5 0 0 1-1.3 1.6c-.7.3-1.4.4-2.2.4-.2.7-.5 1.4-1 2-.5.5-1 .9-1.7 1.2a3 3 0 0 0 0-2 8 8 0 0 1-1.3 1.7l-2 1c0-.5.4-1.1 0-1.8l-1 1.6c-.6.4-1.2.7-2 .9.4-.7.4-1.4 0-2a6 6 0 0 1-1 1.6c-.7.5-1.4.9-2.2 1.2.3-.7.4-1.4.3-2.1h-1c-1.4 0-1.5 1-2.1 1.6-.6.4-1.4.5-2 .4-1-.3-1.7-1.3-.6-2.7-1.8.2-2.7-1-2.7-2s.3-1.7 2-1.6V80c.1-.6.6-1 1.3-1 .4 0 .7.2 1 .4.4.4.5 1 1.2 1.5s2.4.4 2.4.4c1.7-1 3.6-1.8 5.5-2.5 1-.4 4.5-1 4.5-1v-8h2.9c2.4 0 8.7 1 8.7 1l4.5-.3s7.5-1.2 11-1.5c1.9-.2 3.7-.3 5.6-.2 2.7 0 5 .8 7.6 1 2 0 3.8.2 5.8 0 3-.1 8.6 0 10.3-2.6.4-.8.2-1.8-.5-2.3-.8-.7-1.8-1-2.7-.7-.6 0-1.4.5-1.5 1 0 .3 0 .7.3 1 .3.4.6.7 1 .9-.7 0-1.4 0-2-.3-.6-.6-1-1.3-1.2-2-.4.4-.5.9-.4 1.4 0 .5 0 1 .5 1.4-.8 0-1.5-.4-2-.8a6 6 0 0 1-1-2 2 2 0 0 0-.5 1.5c0 .6.2.9.4 1.6-.8-.2-1.5-.6-2-1.1-.4-.6-.6-1.3-.6-2l-8 1.6-8.5 1.4c-4.3.5-7.5.3-10.2-.8-1.3-.5-2-1-2.3-2.2-.2-1 0-1.9.8-2.5 1.2-1.2 2.8-2 4.5-2.3a49 49 0 0 1 7.8-1.5 30 30 0 0 1 8.4.5c1.3 0 2.6-.1 3-.6.3-.3.9-.7 0-1.6a2 2 0 0 1 1.7 1c.3.5 0 1.5 0 1.5h-.1Z"/>
  <path fill="none" stroke="#806600" stroke-miterlimit="135.2" stroke-width=".2" d="M277.2 59.3c1-.1 3-.5 3.8-1.2l1.2-1.2c-.2 2-1.2 3.3-3.4 4-1.8.7-3.7 1-5.5.8a25 25 0 0 1-3.3-.7c1 1.3.5 2.2-1 2.8 0 0 .3-1.2-.2-1.4-1-.3-2 0-3 .7-1 .4-1.9.6-2.8.6-1 0-2.1 0-3.2-.4-.7-.3-2-1.3-2.5-1.2-1.2.3-2.6.4-3.3 1.3a1 1 0 0 0 0 1c.5.7 1.4 1.2 2.4 1.4 2.4.6 5 .6 7.4.2 2.7-.4 5.9-1.1 8.6-1.6l8-1.7c2.7-.6 5.4-1 8-.8 4.7 0 6.3 2.3 6 4.8 0 2.6-3 3.8-5.3 4.5-4.3 1.2-10.1.5-13.8.4L277 73c.7.5 1 1.6 1.8 1.8 1 .4 2.8-.3 4-.4h4.4c.3-.3.7-.6 1.2-.7h1c.5.2.9.7.7 1.8.2.2.5.4.9.5h1.5l1.4.8a9 9 0 0 0-1.3.4c-.3.2-.5.4-.6.7.6 0 1.2 0 1.8.2l1 .9h-1l-.8.7s1.5 0 2 .3l1 1a6 6 0 0 0-1.2 0l-.7.4 1.4 1c.3.5.4 1 .5 1.5a7 7 0 0 0-1-.6h-.7l.2 2c0 .5.8 1 1 1.5 0 .3 0 .7-.2 1a2 2 0 0 1-2 .6l-1-.5-.6 1a2 2 0 0 1-1.2.4c-.5 0-1-.3-1.2-.6a4 4 0 0 1-.6-1.4l-1.4.3a2 2 0 0 1-1.3-.7c-.4-.5-.3-1.2 0-1.6.5-.4 1.6-.4 2.2-.6.5-.3 1-.7 1.4-1.2l-3.4-2.7a23 23 0 0 1-1.5-2s-3 1-4 1c-2 .2-4 .2-5.8 0-4.3 0-7-6-11-7.3-1-.4-2-.4-3 0-4.4.9-9.2 6-13.6 7-2 .5-3.8.7-5.6.7a5 5 0 0 1-1.3 1.6c-.7.3-1.4.4-2.2.4-.2.7-.5 1.4-1 2-.5.5-1 .9-1.7 1.2a3 3 0 0 0 0-2 8 8 0 0 1-1.3 1.7l-2 1c0-.5.4-1.1 0-2-.3.7-.6 1.3-1 1.8-.6.4-1.2.7-2 .9.4-.7.4-1.4 0-2a6 6 0 0 1-1 1.6c-.7.5-1.4.9-2.2 1.2.3-.7.4-1.4.3-2.1h-1c-1.4 0-1.5 1-2.1 1.6-.6.4-1.4.5-2 .4-1-.3-1.7-1.3-.6-2.7-1.8.2-2.7-1-2.7-2s.3-1.7 2-1.6V80c.1-.6.6-1 1.3-1 .4 0 .7.2 1 .4.4.4.5 1 1.2 1.5s2.4.4 2.4.4c1.7-1 3.6-1.8 5.5-2.5 1-.4 4.5-1 4.5-1v-8h2.9c2.4 0 8.7 1 8.7 1l4.5-.4 11-1.4c1.9-.2 3.7-.3 5.6-.2 2.7 0 5 .8 7.6 1 2 0 3.8.2 5.8 0 3-.1 8.6 0 10.3-2.6.4-.8.2-1.8-.5-2.3-.8-.7-1.8-1-2.7-.7-.6 0-1.4.5-1.5 1 0 .4 0 .7.3 1l1 .9s-1.6 0-2.2-.4c-.5-.6-.9-1.2-1-2-.4.5-.5 1-.4 1.5 0 .5 0 1 .5 1.4-.8 0-1.5-.4-2-.8a6 6 0 0 1-1-2l-.6 1.5c0 .6.3.9.5 1.6-.8-.2-1.5-.6-2-1.1-.4-.6-.6-1.3-.6-2l-8 1.6-8.5 1.4c-4.3.5-7.5.3-10.2-.8-1.3-.5-2-1-2.3-2.3-.2-1 .1-1.8.8-2.4 1.2-1.2 2.8-2 4.5-2.3a49 49 0 0 1 7.8-1.5 30 30 0 0 1 8.4.5c1.3 0 2.6-.1 3-.6.3-.3.9-.7 0-1.6a2 2 0 0 1 1.7 1c.3.5 0 1.5 0 1.5h-.1Z"/>
  <path fill="gold" d="M245 70.8c1 .6 2-.2 2-.2a2 2 0 0 1-.6-1c-.2-.6-.3-1.2-.2-1.7-.1-1.5.5-1.7.5-1.6l1.4-.7c.3-.4.5-.8.6-1.3v-1.7c-1.5 0-1.8 0-2.2.5l-.2-1.3a4.3 4.3 0 0 0-1-1.7c0 .4-.4.8-.6 1a6 6 0 0 0-.5-2l-1-1c-.5.1-1 .2-1.3.4a6 6 0 0 0-1.5 1.4 2 2 0 0 1 0-1.1 2 2 0 0 0-.6 0l-1 .7-1 1c0-.5-.2-.8-1.5-1.5-.5.4-.8.8-1 1.4-.2.4-.3 1-.1 1.4l.8 1.3s.4.5-.4 1.7l-1.2 1.3-1.1.4c.3.8.4 1.2 1.6 1.3-2.8 2-3 5-1 7.8.2-.5.6-1 1-1.3 0 .8.2 1.6.7 2.3.3.3.4 1.7.8 2.2l.8.8s.3-1.1.9-1.3l1.9-.6a7 7 0 0 0 1.8-1.6l-.2 1.7c3.6-1.2 4.4-3.7 3.5-7Z"/>
  <path fill="#504416" d="M238 66.4c.1 1.2-.1 2.5-.6 3.6l2.3 1 2.3.2c-.1-1 .8-2.8 1.2-3.4h-1.6l-.7-.7-1.4.3-1.3-1h-.1Z"/>
  <path fill="#fff" d="M238.6 67c-.2.5-.2 1.1 0 1.7l.6-1.4-.6-.3Zm3.3 1-.2 1.6c.4-.4.6-1 .8-1.5h-.6V68Zm-3.4 1.2a3 3 0 0 0-1 1.5h.8l.2-1.5Zm3 .8-.7 1.4.6.3c.2-.5.2-1.1 0-1.7Zm-2.7-7.7c-.4 0-.7.2-.8.5-.2.5 0 1 .8 1.2.5.2 1.2 0 1.5-.6.2-.5-.3-.8-1-1h-.5v-.1Zm4.8 1.5c-.3 0-.6 0-.7.4-.1.6.3 1.2 1 1.3.7.2 1.2 0 1.3-.5.2-.5-.2-.8-1-1a3 3 0 0 0-.6-.2Z"/>
  <path fill="#d1b948" d="M238.8 62.2h-.4c-.3 0-.5.3-.5.6-.1.3 0 .5 0 .8l.9.5c.7.2 1.4 0 1.6-.7 0-.3 0-.6-.2-.7-.3-.2-.6-.4-1-.4h-.4v-.1Zm0 .2h.5l.7.5c.2 0 .3.3.2.4a1 1 0 0 1-1.3.6c-.3-.1-.6-.3-.7-.5a.7.7 0 0 1-.1-.6c0-.2.1-.3.3-.3h.4v-.1Zm4.8 1.2h-.2c-.3 0-.6.2-.6.5-.1.6.3 1.2 1 1.4h1c.3 0 .5-.3.6-.6 0-.3 0-.5-.2-.7l-.8-.5h-.8v-.1Zm0 .2.7.2c.3 0 .5.2.7.3 0 .2.2.4 0 .6 0 .2-.2.3-.3.4h-.8a1 1 0 0 1-.8-1.2c0-.2 0-.2.3-.2h.2v-.1Z"/>
  <path fill="gold" d="M238.8 61.3c-.4 0-.7 0-1 .2v.6h.4l.6.2 1.2.5h1.3l-1-.6c-.5-.2-1-.8-1.5-1ZM245 63h-2.5l1 .7 1.3.2h.6l.4.4.2-.6c-.2-.4-.5-.7-1-.7Zm-7.6 7c-1.2 3 3.6 4.5 4.3 1.2-1.6-.1-3-.6-4.3-1.3Z"/>
  <path fill="#806600" d="m237.4 69.8-.1.2c-.4.6-.4 1.4 0 2a2.5 2.5 0 0 0 4.7-.7V71h-.2c-1.5-.1-3-.6-4.2-1.3l-.2-.2v.2Zm0 .3c1.4.6 2.9 1 4.4 1.2a3 3 0 0 1-1 1.6c-.7.2-1.3.2-2 0-.5-.2-1-.6-1.2-1.1-.3-.6-.3-1.2 0-1.7h-.1Z"/>
  <path fill="#377bc8" stroke="#2c5aa0" stroke-miterlimit="135.2" stroke-width=".2" d="M239.6 67.4c-.7 2-1.2 4.2-.8 6.3 1.4-1.5 2.2-3.7 2.7-5.7l-.4-.3a6 6 0 0 1-.4-.6 3 3 0 0 1-.6.3h-.6Z"/>
  <path fill="gold" d="M243.2 58.2c-.5 0-1 .1-1.4.3a6 6 0 0 0-1.4 1.3v-1a2 2 0 0 0-.6 0l-1 .7-1 1c.4 0 1.5-1 1.9-.8.3 0 0 1 .4 1s.8-.6 1.4-1c.4-.5 1-.8 1.4-.7.4.3.8.7 1 1.3 0 .8.3 1.6.6 1.7.4.2.7-.7 1-.6.4 0 .6 1.5 1 1.7l-.2-1.4-.6-1a2 2 0 0 0-.5-.6c0 .4-.3.8-.5 1a6 6 0 0 0-.5-2l-1-1Zm-6 5.2c-.4.8.2 1.6 1.3 1.8l-.4 1 .5 1 1 .5 1-.4.7.9 1 .2 1-.7.6-.8h.7l.7-.4.2-.8a2 2 0 0 1-2.4.4c0 .4-.2.8-.4 1.2a1 1 0 0 1-1 .2 2 2 0 0 1-1-.8c-.3.2-.7.4-1 .3-.4-.1-.8-.5-1-1 0-.4.1-.8.5-1.1-2.2-.6-1.4-1.2-2-1.5Zm-1 .2-1.8 2.5-1.1.4c.3.8.4 1.2 1.6 1.3-2.8 2-3 5-1 7.8.2-.5.6-1 1-1.3 0 .8.2 1.6.7 2.3.3.3.4 1.7.8 2.2l.8.8s.3-1.1.9-1.3l1.9-.6a7 7 0 0 0 1.8-1.6l-.2 1.7c3.6-1.2 4.4-3.7 3.5-7 .9.6 1.9-.2 2-.2-.4-.3-.6-.6-.7-1-.2-.6-.2-1.2-.2-1.7l-.1-1.1-.5 1.5v1.6a5 5 0 0 1-1.7-1c.3 1.3.6 2.5.7 3.7 0 .8-.1 1.6-.4 2.3-.4.6-1 1.1-1.5 1.6 0-.7.2-1.4.3-2l-.3-2.8-.8 2.6-1.1 1.8c.2-2 0-2-.2-2.7 0 0-.4 2.4-1.2 3.4a7 7 0 0 1-1.5.7c-.3 0-.5.3-.6.5l-.6-1.6a10 10 0 0 1-1.1-2c-.3-1.1 1-3.4 1-3.4-.4 0-1 .6-1.5 1.3-.5.5-.9 1-1.2 1.6-.3-.7-.4-1.5-.5-2.2 0-.7.2-1.4.7-2 .5-1 3-2.8 3-2.8a4 4 0 0 1-2.6 0l1.2-1.5a6 6 0 0 0 .5-1.8Zm4.7 1-1.3.2v.5h.5l.7 1 1.6-.4.2-.3-1.4-.8h-.4v-.2Z"/>
  <path fill="none" stroke="#806600" stroke-miterlimit="135.2" stroke-width=".2" d="M245 70.8c1 .6 2-.2 2-.2a2 2 0 0 1-.6-1c-.2-.6-.3-1.2-.2-1.7-.1-1.5.5-1.7.5-1.6l1.4-.7c.3-.4.5-.8.6-1.3v-1.7c-1.5 0-1.8 0-2.2.5l-.2-1.3a4.3 4.3 0 0 0-1-1.7c0 .4-.4.8-.6 1 0-1.2-.6-2.3-1.5-3-1.3 0-2 .8-2.8 1.8a2 2 0 0 1 0-1.1 2 2 0 0 0-.6 0l-1 .7-1 1c0-.5-.2-.8-1.5-1.5-.5.4-.8.8-1 1.4-.2.4-.3 1-.1 1.4l.8 1.3s.4.5-.4 1.7l-1.2 1.3-1.1.4c.3.8.4 1.2 1.6 1.3-2.8 2-3 5-1 7.8.2-.5.6-1 1-1.3 0 .8.2 1.6.7 2.3.3.3.4 1.7.8 2.2l.8.8s.3-1.1.9-1.3l1.9-.6a7 7 0 0 0 1.8-1.6l-.2 1.7c3.6-1.2 4.4-3.7 3.5-7Z"/>
  <path fill="#806600" d="M236.3 60a3 3 0 0 0-.5 1.5l.9 1.5c.2-.7.4-1.4.4-2.1 0-.4-.8-1-.8-1Zm2 2h-.3c-.2 0-.4 0-.5.4.2 0 .5 0 .7-.2h.2l1 .6h1.8l-.2.6-.8.5-.3.4a1 1 0 0 0-.3.3v.7h.2c.3 0 .7.4.7.8l.2.2h.6a1 1 0 0 1 1-.2h.2V66l.4-.5v-.3a7 7 0 0 0-.2-.5l-.3-1V63l1.5 1h1.2c.2 0 .2.2.3.3l.4.5-.1-.7c-.2-.2-.3-.2-.5-.2l-1.1-.1c-.6-.2-1-.6-1.4-1l-.2-.1-.1.2c-.2.3-.3.6-.3 1l.4 1v.9c-.5 0-1 0-1.4.4h-.2c-.2-.5-.6-1-1-1.2v-.4l.4-.3.8-.7c.2-.3.4-.6.4-1v-.2h-.3c-.6.1-1.1.1-1.6 0-.3 0-.6-.3-1-.4l-.3-.1Zm-1 1c-.4.5-.5 1-.2 1.6.3.4.6.6 1 .7v.2l-.2.7c0 .5.4 1 .7 1.3.3.2.7.3 1.2.3l.7-.2.6.6c.3.2.7.3 1 .3.9 0 1.5-.6 1.7-1.4V67c.4.1.8 0 1.2-.1.4-.3.7-1 .6-1.4-.3.2 0 .7-.8 1.2a1 1 0 0 1-1 0l-.4-.3v.8l-.2.5c-.3.3-.7.5-1 .5-.4 0-.7 0-1-.2l-.3-.6-.1-.5-.3.3-.3.2h-.5a1 1 0 0 1-.8-.1c-.4-.3-.6-.7-.6-1.1v-.5c0-.2 0-.3.2-.4l.2-.3h-.4c-.4 0-.7-.2-1-.5-.4-.6 0-1 0-1.4Zm10.7.3s-.8 0-1.1.4c-.3.6-.6 1.3-.7 2 .5-.2 1-.5 1.5-1 .2-.4.3-1 .3-1.4Z"/>
  <path fill="#2b2200" d="M239.2 62.6a.5.5 0 1 0-.2 1 .5.5 0 0 0 .2-1ZM244 64a.5.5 0 1 0 0 1 .5.5 0 0 0 0-1Z"/>
  <path fill="#377bc8" stroke="#2c5aa0" stroke-miterlimit="135.2" stroke-width=".2" d="M220.6 79c-.4.2-1-.2-2.3 1 .7-.1 1.5.2 2 .8.4 0 .7-.2.9-.5a1 1 0 0 0-.6-1.3Zm30.3 1.5c-.4 0-1-.2-2.3.9.7-.1 1.5.2 2 .8.3 0 .7-.2.9-.5a1 1 0 0 0-.6-1.2ZM218.4 82c-.3.4-1 .3-1.8 1.8a2 2 0 0 1 2.3 0c.3-.2.5-.5.5-.8 0-.6-.5-1-1-1Zm33 2.4c-.3.4-1 .3-1.7 1.9.6-.5 1.5-.6 2.3-.2.3-.2.5-.5.5-.8a1 1 0 0 0-1-1h-.1Zm-30.6 1.3c-.3 0-.5 0-.6.2-.1.4-.8.7-.7 2.4a2 2 0 0 1 1.9-1.2c.2-.2.2-.6 0-1a.9.9 0 0 0-.6-.4Zm65.7.2h-.4c-.2.5-1 .7-1 2.4.4-.7 1.2-1 2-1 .3-.2.4-.5.2-.8a.9.9 0 0 0-.8-.6Zm-31.3 1.2c-.3 0-.5 0-.6.2 0 .4-.7.7-.5 2.4a2 2 0 0 1 1.9-1.3v-1a.9.9 0 0 0-.8-.3Zm39 0a1 1 0 0 0-1 .6c.2.5-.2 1 .8 2.4a2 2 0 0 1 1-2c0-.4-.2-.7-.5-.8l-.3-.1v-.1Zm-4.2.6a1 1 0 0 0-.7.3c0 .5-.6 1 0 2.5a2 2 0 0 1 1.5-1.7c.2-.3 0-.7-.2-1a1 1 0 0 0-.6-.1Z"/>
  <path fill="gold" stroke="#806600" stroke-miterlimit="128.6" stroke-width=".2" d="M234 110.8c-.6 0-1.3-.2-2-.4-.5-.5-1-1-1.2-1.7-.7.2-1.5.2-2.3 0a6 6 0 0 1-1.8-1 3 3 0 0 0 2-.7 9 9 0 0 1-2.2-.3 10 10 0 0 1-1.8-1.2c.6-.1 1.3-.1 1.8-.7-.7 0-1.4 0-2-.2-.6-.3-1-.7-1.5-1.1.7 0 1.4-.3 2-.8a7 7 0 0 1-2-.2 10 10 0 0 1-2-1.4 4 4 0 0 0 2-.5l-.4-1c-.5-1-1.6-.6-2.3-1a2 2 0 0 1-1.1-1.4c-.1-.7.3-2 2-1.7-.8-1.3 0-2.2 1-2.6.9-.4 1.6-.3 2.2 1.2.3-.4.8-.6 1.3-.8.5-.2 1.2 0 1.5.6v1c-.3.5-.8.8-1 1.5-.1.8.6 2 .6 2l4.9 4.2 2.3 2.5h3.4l.3 5.5H234v.2Z"/>
  <path fill="#377bc8" stroke="#2c5aa0" stroke-miterlimit="128.6" stroke-width=".2" d="M224.8 92.2c.5.5.7 1.2.6 2 .2.3.5.5.8.4.4-.2.7-.7.6-1.1-.3-.3-.4-1-2-1.3Zm-3.8.4h-1a2 2 0 0 1 1.4 1.8c.2.2.6.2.9 0 .4-.3.4-1 0-1.3-.2 0-.5-.4-1.3-.5Zm-1.1 3.6c-.4 0-1-.3-2.3.7.7-.1 1.5.2 2 .9.3 0 .6-.1.7-.4.2-.5 0-1-.4-1.2Z"/>
  <path fill="gold" stroke="#806600" stroke-miterlimit="128.6" stroke-width=".2" d="M253.2 113.3c-.6-.2-1.3-1-2-1-.6 0-1.2.4-1.4.9-.1.4 0 1 .4 1.3l1 .8c-.4.3-.6.7-.7 1.2 0 .4.1.7.5 1 .3.5.4.6 1 .7l1.2-.1c0 .3 0 .6.2 1 .3.5 1 .9 1.7.9.4 0 .9-.2 1-.6.3-.3.3-1.2.6-1.5l1.6-1.4c.7.4.7 1 .6 1.6l1.3-1 .4-1.7c.5.4.8 1 .7 1.8l1.4-1.1.7-1.6c.4.5.6 1.2.4 1.9l1.4-1.4.4-1.3c1.4 0 2.3-.5 2.3-1.2 0-.4-.5-1.1-1.6-1.3a6 6 0 0 1-.6-1 1 1 0 0 1 0-1 4 4 0 0 1 1.4-1.6c.7-.6 1.5-1 2.4-1.4l-.5-2.4-5.6-1-6.2 1.6c1 .5 3.6 2.3 3.4 3 0 .2-.6.5-.8.8-.2.3 0 .6 0 .9.4.4 1 .4 1 .8.3.2.3.5.2.8-.4.6-1.8.8-2.5 1l-3.4 1.9c-.7 0-1.4 0-2-.3Z"/>
  <path fill="gold" stroke="#806600" stroke-miterlimit="128.6" stroke-width=".2" d="M266.3 105.7s0 2-1 2.5c-.4.2-.8.3-1.2.2-.4-.2-.7-.6-.8-1l-.2-.8a8 8 0 0 0-2-.7c-1 0-2 .2-3 .6a6 6 0 0 1 2.2-2.8l3.3-.2 2.7 2.2Z"/>
  <path fill="gold" d="M275.2 92.4c1-.1 3-.5 3.6-1.1l1-1.2c0 1.9-1 3-3 4a12 12 0 0 1-5.3.6 24 24 0 0 1-3.2-.7c1 1.3.6 2-1 2.7 0 0 .3-1.2-.1-1.3-1-.4-2 0-3 .6-.8.4-1.7.6-2.5.6-1 0-2-.1-3-.4-.7-.3-2-1.2-2.5-1.1-1 .2-2.4.3-3 1a1 1 0 0 0 0 1.2c.5.7 1.3 1.1 2.2 1.3 2.3.5 4.7.6 7 .2 2.6-.4 5.6-1.1 8.2-1.6 2.5-.4 5.8-1.2 7.8-1.6 2.4-.6 5-.9 7.5-.8 4.4 0 5.9 2.3 5.8 4.6-.2 2.5-3 3.6-5.2 4.3-4 1.2-9.6.5-13.1.4l1.7 1.3c.6.5 1 1.5 1.7 1.8 1 .3 2.7-.4 3.8-.4h4.2l1-.7h1c.6.2.9.7.7 1.7.2.2.5.4.9.5h1.4l1.4.7-1.3.4-.5.6 1.6.3c.4.2.8.5 1 .8h-1a5 5 0 0 0-.7.7s1.4 0 1.9.3l.9 1H292c-.3 0-.5.2-.6.3l1.3 1 .5 1.4-1-.5-.7-.1.3 2c0 .4.7 1 .9 1.3.2.4 0 .8-.2 1a2 2 0 0 1-1.8.6l-1-.5-.6.9c-.4.3-.6.3-1.2.2-.4 0-.8 0-1.1-.3-.3-.4-.5-1-.6-1.4l-1.3.3a2 2 0 0 1-1.3-.6c-.3-.5-.2-1.1.2-1.5.4-.4 1.4-.5 2-.7l1.3-1.1c-1.2-.8-2.2-1.7-3.2-2.6l-1.4-1.8-4 1a22 22 0 0 1-5.4 0c-4 0-6.8-5.7-10.4-7-1-.4-2-.4-3-.1-4.1.9-8.7 5.8-13 6.8a46 46 0 0 1-5.2.6c-.3.6-.7 1-1.2 1.5a6 6 0 0 1-2.1.4 7 7 0 0 1-1 2 6 6 0 0 1-1.6 1c.2-.6.2-1.3 0-2l-1.3 1.7-1.8 1c0-.5.4-1.1 0-1.8l-1 1.6-1.8.8a2 2 0 0 0 0-2l-1 1.7-2.1 1c.3-.5.4-1.2.3-2h-1c-1.3 0-1.4 1-2 1.6-.6.4-1.4.6-2 .4-.8-.3-1.5-1.2-.5-2.6-1.7.2-2.6-.8-2.5-1.8 0-1 .3-1.6 2-1.5-.2-.4-.3-.8-.2-1.2 0-.6.6-1 1.3-1 .4 0 .7.2 1 .4.4.4.5 1 1 1.4a6 6 0 0 0 2.4.4c1.6-1 3.4-1.7 5.2-2.3 1-.4 4.2-1 4.2-1v-7.7c1 0 1.9.2 2.8 0 2.3 0 8.3 1 8.3 1l4.3-.3 10.6-1.4c1.7-.2 3.4-.3 5.2-.2 2.6 0 4.8.8 7.2.9 1.9.2 3.7.2 5.5.2 3-.2 8.2 0 9.9-2.6.4-.8.2-1.7-.5-2.2-.7-.7-1.7-1-2.6-.7-.6 0-1.3.6-1.4 1 0 .4 0 .8.3 1 .2.3.5.6 1 .8-.7 0-1.4 0-2-.3-.5-.6-1-1.2-1.1-2-.4.4-.5 1-.4 1.4 0 .5.1 1 .5 1.4-.8 0-1.5-.4-2-.8-.4-.6-.7-1.2-.8-1.8a2 2 0 0 0-.6 1.3c0 .6.3.9.4 1.5-.8-.2-1.4-.5-2-1-.3-.6-.5-1.3-.5-2-1.5.5-4.4 1-7.6 1.6a95 95 0 0 1-8 1.4c-4.2.5-7.2.2-9.7-.8-1.3-.5-2-1-2.3-2.1-.2-1 .1-1.8.8-2.4 1.1-1.2 2.6-2 4.3-2.2 2.4-.6 4.9-1.1 7.4-1.4a27 27 0 0 1 8 .4c1.2.2 2.5 0 2.9-.5.3-.3.8-.7 0-1.5a2 2 0 0 1 1.6 1c.2.4 0 1.4 0 1.4h-.1Z"/>
  <path fill="gold" stroke="#806600" stroke-miterlimit="128.6" stroke-width=".2" d="M275.2 92.4c1-.1 3-.5 3.6-1.1l1-1.2c0 1.9-1 3-3 4a12 12 0 0 1-5.3.6 24 24 0 0 1-3.2-.7c1 1.3.6 2-1 2.7 0 0 .3-1.2-.1-1.3-1-.4-2 0-3 .6-.8.4-1.7.6-2.5.6-1 0-2-.1-3-.4-.7-.3-2-1.2-2.5-1.1-1 .2-2.4.3-3 1a1 1 0 0 0 0 1.2c.5.7 1.3 1.1 2.2 1.3 2.3.5 4.7.6 7 .2 2.6-.4 5.6-1.1 8.2-1.6 2.5-.4 5.8-1.2 7.8-1.6 2.4-.6 5-.9 7.5-.8 4.4 0 5.9 2.3 5.8 4.6-.2 2.5-3 3.6-5.2 4.3-4 1.2-9.6.5-13.1.4l1.7 1.3c.6.5 1 1.5 1.7 1.8 1 .3 2.7-.4 3.8-.4h4.2l1-.7h1c.6.2.9.7.7 1.7.2.2.5.4.9.5h1.4l1.4.7-1.3.4-.5.6 1.6.3c.4.2.8.5 1 .8h-1a5 5 0 0 0-.7.7s1.4 0 1.9.3l.9 1H292c-.3 0-.5.2-.6.3l1.3 1 .5 1.4-1-.5-.7-.1.3 2c0 .4.7 1 .9 1.3.2.4 0 .8-.2 1a2 2 0 0 1-1.8.6l-1-.5-.6.9a2 2 0 0 1-1.2.4c-.5 0-.9-.2-1.1-.5-.3-.4-.5-1-.6-1.4l-1.3.3a2 2 0 0 1-1.3-.6c-.3-.5-.2-1.1.2-1.5.4-.4 1.4-.5 2-.7l1.3-1.1c-1.2-.8-2.2-1.7-3.2-2.6l-1.4-1.8-4 1a22 22 0 0 1-5.4 0c-4 0-6.8-5.7-10.4-7-1-.4-2-.4-3-.1-4.1.9-8.7 5.8-13 6.8a46 46 0 0 1-5.2.6c-.3.6-.7 1-1.2 1.5a6 6 0 0 1-2.1.4 7 7 0 0 1-1 2 6 6 0 0 1-1.6 1c.2-.6.2-1.3 0-2l-1.3 1.7-1.8 1c0-.5.4-1.1 0-1.8l-1 1.6-1.8.8a2 2 0 0 0 0-2l-1 1.7-2.1 1c.3-.5.4-1.2.3-2h-1c-1.3 0-1.4 1-2 1.6-.6.4-1.4.6-2 .4-.8-.3-1.5-1.2-.5-2.6-1.7.2-2.6-.8-2.5-1.8 0-1 .3-1.6 2-1.5-.2-.4-.3-.8-.2-1.2 0-.6.6-1 1.3-1 .4 0 .7.2 1 .4.4.4.5 1 1 1.4a6 6 0 0 0 2.4.4c1.6-1 3.4-1.7 5.2-2.3 1-.4 4.2-1 4.2-1v-7.7c1 0 1.9.2 2.8 0 2.3 0 8.3 1 8.3 1l4.3-.3 10.6-1.4c1.7-.2 3.4-.3 5.2-.2 2.6 0 4.8.8 7.2.9 1.9.2 3.7.2 5.5.2 3-.2 8.2 0 9.9-2.6.4-.8.2-1.7-.5-2.2-.7-.7-1.7-1-2.6-.7-.6 0-1.3.6-1.4 1-.1.3 0 .7.3 1 .2.3.5.5 1 .8-.8 0-1.5-.1-2.1-.4a4 4 0 0 1-1-1.8c-.4.3-.5.8-.4 1.3 0 .5.1 1 .5 1.4-.8 0-1.5-.3-2-.7-.4-.6-.7-1.2-.8-2a2 2 0 0 0-.6 1.4c0 .6.3.9.4 1.5-.8-.2-1.4-.5-2-1l-.5-1.8-7.6 1.4a95 95 0 0 1-8 1.4c-4.2.5-7.2.2-9.7-.8-1.3-.5-2-1-2.3-2.1-.2-1 .1-1.8.8-2.4 1.1-1.2 2.6-2 4.3-2.2a31 31 0 0 1 15.4-.9c1.2 0 2.5-.1 2.9-.5.3-.4.8-.8 0-1.6a2 2 0 0 1 1.6 1c.2.4 0 1.4 0 1.4h-.1Z"/>
  <path fill="gold" d="M244.6 103.3c.9.6 1.8-.1 2-.2-.4-.3-.6-.6-.7-1a6 6 0 0 1-.2-1.6c-.1-1.4.5-1.6.5-1.5l1.3-.6c.3-.3.5-.8.6-1.2l-.1-1.7c-1.3 0-1.7 0-2 .5l-.2-1.3a4 4 0 0 0-.5-1l-.5-.5c0 .3-.3.7-.5 1 0-.7-.3-1.4-.5-2a1.5 1.5 0 0 0-2.2-.6c-.6.3-1 .8-1.4 1.3v-1h-.6a6.2 6.2 0 0 0-1.9 1.7c0-.5-.2-.8-1.4-1.5-.5.3-.8.8-1 1.3a2 2 0 0 0-.1 1.4c.2.4.4.8.8 1.2 0 0 .4.4-.4 1.6a6 6 0 0 1-1.1 1.2c-.3.3-.7.4-1.1.4.3.8.4 1.2 1.5 1.3-2.6 1.9-3 4.9-1 7.4.3-.5.6-1 1-1.3 0 .8.2 1.6.7 2.3.3.2.4 1.6.7 2l.8.8s.4-1 .9-1.2l1.6-.7 1.8-1.5-.2 1.6c3.4-1.2 4.2-3.5 3.3-6.7Z"/>
  <path fill="#504416" d="M238 99a7 7 0 0 1-.7 3.6l2.2.9 2.2.2c-.1-1 .7-2.6 1.2-3.2h-1.6l-.8-.7-1.3.3-1.2-1Z"/>
  <path fill="#fff" d="M238.4 99.7c-.2.5-.2 1 0 1.6l.6-1.3-.6-.3Zm3.2 1-.2 1.5c.4-.4.6-.9.8-1.4l-.6-.1Zm-3.2 1c-.5.4-.7.9-.8 1.5h.6l.2-1.4v-.1Zm2.8.9-.7 1.3.6.3c.1-.5.1-1.1 0-1.6Zm-2.6-7.3c-.5 0-.8 0-1 .4 0 .5.3 1 1 1 .5.3 1.1 0 1.4-.5 0-.4-.3-.7-1-1h-.4Zm4.5 1.3c-.3 0-.5 0-.6.4-.1.5.3 1 .9 1.2.6.2 1.2 0 1.3-.5 0-.4-.2-.8-1-1l-.6-.1Z"/>
  <path fill="#d1b948" d="M238.6 95.2h-.4c-.3 0-.5.2-.5.5s0 .5.2.7c.2.3.5.5.8.5.5.2 1.2 0 1.5-.6 0-.3 0-.6-.2-.7-.3-.2-.6-.4-1-.4h-.4Zm0 .2h.5l.7.4.2.4a1 1 0 0 1-1.3.5.7.7 0 0 1-.6-.4.6.6 0 0 1-.1-.5c0-.2 0-.4.3-.4h.4-.1Zm4.6 1h-.2c-.3.1-.5.3-.5.5-.2.6.3 1.3 1 1.4h.9c.2-.1.4-.3.5-.6 0-.3 0-.5-.2-.7-.3-.2-.5-.4-.8-.4a3 3 0 0 0-.7-.1v-.1Zm0 .3h.7l.7.5v.5l-.3.4h-.8a1 1 0 0 1-.8-1.1c0-.2.2-.3.4-.3Z"/>
  <path fill="gold" d="M238.6 94.3a1 1 0 0 0-.8.2l-.1.5h.4l.5.2 1.2.5h1.2l-1-.5c-.4-.3-.8-.8-1.3-1h-.1Zm6 1.7H242l1 .7h1.3l.5.3.4.2.2-.5a1 1 0 0 0-.8-.7h-.1Zm-7.2 6.6c-1.2 2.9 3.4 4.4 4 1.2a9.7 9.7 0 0 1-4-1.2Z"/>
  <path fill="#806600" d="M237.3 102.3v.2c-.3.6-.3 1.3 0 2a2.4 2.4 0 0 0 4.3-.7v-.2a9 9 0 0 1-4-1.2h-.2l-.1-.1Zm.2.4c1.2.6 2.6 1 4 1-.2.7-.6 1.2-1 1.6a3 3 0 0 1-1.7 0 3 3 0 0 1-1.4-1.1 2 2 0 0 1 0-1.5Z"/>
  <path fill="#377bc8" stroke="#2c5aa0" stroke-miterlimit="128.6" stroke-width=".2" d="M239.3 100c-.6 2-1 4-.7 6 1.4-1.4 2-3.4 2.6-5.4l-.4-.3-.3-.5-.6.3h-.6Z"/>
  <path fill="gold" d="M242.8 91.4c-.5 0-1 0-1.3.2-.6.3-1 .8-1.4 1.3v-1h-.5a4 4 0 0 0-1 .7c-.4.3-.8.6-1 1 .5 0 1.5-1 1.9-.8.3 0 0 1 .4 1s.8-.6 1.3-1.1c.4-.4 1-.7 1.4-.6.4.3.7.8.8 1.3.2.7.4 1.4.7 1.6.3 0 .6-.7 1-.6.3 0 .5 1.4.9 1.6l-.3-1.3a4 4 0 0 0-1-1.5c0 .3-.3.7-.4 1 0-.7-.3-1.4-.5-2l-1-.8Zm-5.6 4.8c-.4.9.2 1.6 1 1.8l-.3 1 .6 1 1 .4 1-.4.6.8.8.2 1-.6.6-.8h.7l.6-.3.2-.8a2 2 0 0 1-2.2.3c0 .4-.2.8-.4 1.2-.3.2-.7.3-1 .2a2 2 0 0 1-1-.8c-.3.2-.6.4-1 .3a1 1 0 0 1-.8-.8c-.1-.5 0-1 .4-1.2-2-.6-1.3-1.1-1.8-1.5Zm-1 .3-1.7 2.3c-.3.3-.7.4-1.1.5.3.7.4 1 1.5 1.2-2.6 1.9-3 4.9-1 7.4.3-.5.6-1 1-1.3 0 .8.2 1.6.7 2.3.3.2.4 1.6.7 2l.8.8s.4-1 .9-1.2l1.6-.7 1.8-1.5-.2 1.6c3.4-1.2 4.2-3.5 3.3-6.7.9.6 1.8-.1 2-.2-.4-.3-.6-.6-.7-1-.2-.5-.2-1-.2-1.6l-.1-1-.5 1.5v1.4l-1.6-.8.7 3.5c0 .7-.2 1.5-.4 2.2-.4.6-1 1-1.5 1.5l.3-2-.3-2.6a14 14 0 0 1-.7 2.4l-1 1.8c0-1.8 0-2-.2-2.6 0 0-.4 2.3-1.2 3.2l-1.4.7c-.3 0-.5.3-.6.5l-.6-1.5c-.4-.7-.8-1.3-1-2-.3-1 1-3.2 1-3.2-.4 0-1 .6-1.5 1.3l-1.1 1.4c-.2-.7-.4-1.3-.4-2 0-.6.2-1.3.5-1.8.6-1 3-2.8 3-2.8-.9.3-1.7.3-2.5 0 0 0 1-1.1 1-1.4.4-.5.5-1.1.6-1.7Zm4.4 1h-1.1v.5h.5l.6 1 1.6-.4.2-.3-1.4-.8a2 2 0 0 0-.4 0Z"/>
  <path fill="none" stroke="#806600" stroke-miterlimit="128.6" stroke-width=".2" d="M244.6 103.3c.9.6 1.8-.1 2-.2-.4-.3-.6-.6-.7-1a6 6 0 0 1-.2-1.6c-.1-1.4.5-1.6.5-1.5l1.3-.6c.3-.3.5-.8.6-1.2l-.1-1.7c-1.3 0-1.7 0-2 .5l-.2-1.3a4 4 0 0 0-.5-1l-.5-.5c0 .3-.3.7-.5 1 0-1.1-.6-2.2-1.5-2.8-1.2 0-2 .6-2.6 1.5v-1h-.6a6.2 6.2 0 0 0-1.9 1.7c0-.5-.2-.8-1.4-1.5-.5.3-.8.8-1 1.3a2 2 0 0 0-.1 1.4c.2.4.4.8.8 1.2 0 0 .4.4-.4 1.6a6 6 0 0 1-1.1 1.2c-.3.2-.7.4-1.1.4.3.8.4 1 1.5 1.3-2.6 1.9-3 4.8-1 7.4.3-.5.6-1 1-1.3 0 .8.2 1.6.7 2.3.3.2.4 1.6.7 2l.8.8s.4-1 .9-1.2l1.6-.7 1.8-1.5-.2 1.6c3.4-1.2 4.2-3.5 3.3-6.7Z"/>
  <path fill="#806600" d="M236.3 93c-.3.4-.5.9-.5 1.4l.9 1.5a7 7 0 0 0 .3-2c0-.4-.7-1-.7-1Zm1.9 1.9h-.3c-.2 0-.4.2-.5.5l.6-.2h.3l1 .5h1.7l-.3.6-.7.5-.3.3-.2.3v.7c.4 0 .7.4.8.8l.2.2h.5a1 1 0 0 1 1-.3l.4-.5V98l-.1-.5-.4-1 .2-.6c.3.4.8.7 1.3 1h1.2l.2.2.4.5-.1-.7c-.1-.2-.2-.1-.4-.2h-1.2c-.5-.3-1-.6-1.2-1l-.2-.1-.2.2c-.2.3-.3.6-.2 1l.3 1a5.3 5.3 0 0 1 0 .8 2 2 0 0 0-1.3.4h-.1c-.2-.5-.6-1-1-1.2v-.4l.4-.3.8-.6c.2-.3.3-.6.3-1v-.2h-.3a3 3 0 0 1-1.5 0l-1-.4h-.2Zm-1 1c-.3.5-.4 1-.1 1.5.2.4.5.6.9.7v.2l-.2.7c0 .5.3.9.7 1.2.3.2.7.3 1 .3.2 0 .5 0 .8-.2l.5.6c.3.2.7.3 1 .2.8 0 1.4-.5 1.6-1.2v-.2c.4.1.8 0 1.2-.1.4-.3.6-.8.5-1.3-.3.2 0 .6-.7 1a1 1 0 0 1-1 0l-.3-.2v.8l-.3.5c-.3.3-.7.4-1 .5-.3 0-.5 0-.7-.2-.3-.2-.4-.4-.5-.6v-.5l-.3.3-.4.2h-.4l-.8-.1c-.3-.3-.6-.6-.6-1v-.6l.3-.3.2-.2h-.4c-.4 0-.8-.3-1-.6-.3-.5 0-1 0-1.3Zm10.2.3s-.8 0-1 .4c-.4.5-.7 1.1-.8 1.8l1.5-.8c.2-.4.4-1 .3-1.4Z"/>
  <path fill="#2b2200" d="M239 95.6a.5.5 0 0 0-.1.9.5.5 0 0 0 0-1Zm4.6 1.2a.5.5 0 0 0 0 .9.5.5 0 0 0 0-1Z"/>
  <path fill="#377bc8" stroke="#2c5aa0" stroke-miterlimit="128.6" stroke-width=".2" d="M221.4 111.2c-.4 0-1-.2-2.3.8a2 2 0 0 1 2 .8c.3 0 .6-.2.8-.5.1-.5-.1-1-.5-1.1Zm28.8 1.3c-.4.2-1-.2-2.3.9a2 2 0 0 1 2 .8c.4 0 .7-.2.8-.5.2-.5 0-1-.5-1.2Zm-31 1.6c-.3.3-1 .2-1.7 1.7a2 2 0 0 1 2.2 0c.3-.2.5-.5.5-.8 0-.6-.5-1-1-1Zm31.5 2.3c-.3.3-1 .2-1.6 1.7a2 2 0 0 1 2-.1c.4-.2.6-.5.6-.8-.1-.5-.5-.9-1-.8Zm-29.2 1.2a1 1 0 0 0-.6.2c0 .4-.7.6-.7 2.2a2 2 0 0 1 1.9-1 1 1 0 0 0 0-1 .9.9 0 0 0-.6-.4Zm62.5.2h-.4c-.1.5-.8.6-1 2.3a2 2 0 0 1 2-1c.3-.1.3-.5.2-.8a.8.8 0 0 0-.8-.5Zm-29.8 1a1 1 0 0 0-.5.3c0 .4-.7.7-.5 2.3a2 2 0 0 1 1.8-1.3c.1-.3.1-.6 0-.8a.9.9 0 0 0-.8-.4v-.1Zm37 .2c-.3 0-.6.2-.7.5 0 .4-.3 1 .7 2.3a2 2 0 0 1 .9-2c0-.3-.2-.6-.4-.7a1 1 0 0 0-.4-.1Zm-4 .5a1 1 0 0 0-.5.3c0 .4-.5.9 0 2.4a2 2 0 0 1 1.5-1.6c0-.3 0-.7-.2-1a.9.9 0 0 0-.7-.1Z"/>
  <path fill="gold" stroke="#806600" stroke-miterlimit="103.2" stroke-width=".2" d="M241 138.9c-.5 0-1 0-1.5-.2a3 3 0 0 1-1-1.3 7 7 0 0 1-1.8 0c-.6-.2-1-.5-1.5-.8.5 0 1.1-.3 1.6-.6-.6 0-1.2-.2-1.7-.3a8 8 0 0 1-1.5-1c.5 0 1 0 1.5-.5-.6 0-1.1 0-1.6-.2s-.9-.5-1.2-.8a2 2 0 0 0 1.5-.7l-1.6-.1a8 8 0 0 1-1.6-1.1c.6 0 1.2-.2 1.7-.5l-.3-.7c-.5-.8-1.3-.5-2-.8-.5-.3-.8-.7-.8-1.2 0-.6.2-1.5 1.6-1.3-.7-1 0-2 .8-2.2.7-.3 1.3-.2 1.8 1a2 2 0 0 1 1-.6c.4-.2 1 0 1.2.5v.8c-.2.4-.6.6-.7 1.2 0 .6 0 1.2.4 1.7 0 0 2.7 2 3.9 3.3l1.9 2v-.1h2.7l.2 4.5h-3Z"/>
  <path fill="#377bc8" stroke="#2c5aa0" stroke-miterlimit="103.2" stroke-width=".2" d="M233.7 124c.5.5.6 1 .5 1.8l.6.2c.4-.1.6-.5.5-1-.3-.1-.3-.6-1.6-1Zm-3 .4a3 3 0 0 0-.8 0c.5.3.9.8 1 1.4.2.1.5.1.8 0 .2-.3.2-.8 0-1-.2 0-.4-.3-1-.4Zm-1 2.9c-.6 0-1.3 0-1.8.6.6-.1 1.2.2 1.6.7.2 0 .5-.1.6-.3.2-.4 0-.8-.3-1h-.1Z"/>
  <path fill="gold" stroke="#806600" stroke-miterlimit="103.2" stroke-width=".2" d="M254.3 141c-.5-.1-1-.7-1.5-.7s-1 .2-1.2.6c-.1.3 0 .7.3 1l.9.7a3 3 0 0 0-.6 1c0 .3 0 .6.3.8.3.4.4.5.9.6l1-.1v.7c.3.5.8.8 1.5.8.3 0 .6-.2.8-.5.2-.2 0-1 .5-1.2l1.2-1.1c.5.3.5.8.5 1.3l1-1 .4-1.2c.4.3.6 1 .5 1.5l1-1 .7-1.2c.3.4.5 1 .3 1.5.4-.3.8-.7 1-1.1.3-.3.4-.7.4-1 1.2 0 1.9-.5 2-1 0-.4-.5-1-1.4-1l-.4-1v-.7c.2-.5.5-1 1-1.3.6-.4 1.3-.8 2-1l-.4-2-4.5-.7-5 1.2c1 .4 3 1.8 2.8 2.4 0 .2-.5.4-.7.6-.2.2 0 .6 0 .8.3.3.8.3 1 .6v.7c-.3.4-1.5.6-2 .9l-2.8 1.4c-.6 0-1-.1-1.5-.3Z"/>
  <path fill="gold" stroke="#806600" stroke-miterlimit="103.2" stroke-width=".2" d="M263.4 134.9s-.1 1.6-.8 2c-.3.2-.6.3-1 .2-.3-.2-.6-.5-.6-.8l-.2-.7a5 5 0 0 0-1.6-.5c-.8 0-1.6.2-2.4.5.4-.9 1-1.7 1.8-2.2l2.6-.2 2.2 1.7Z"/>
  <path fill="gold" d="M268.6 124.2c.5 0 1.8-.3 2.3-1l.7-.8c0 1.3-.8 2.6-2 3.2-1.2.5-2.4.7-3.6.5l-2-.5c.7 1 .3 1.6-.7 2 0 0 .2-1-.1-1-.6-.2-1.3 0-2 .6a3 3 0 0 1-1.6.4c-.7 0-1.4 0-2-.3-.5-.2-1.3-1-1.7-1-.7.3-1.6.4-2 1a1 1 0 0 0 0 .9c.3.5.8.9 1.5 1 1.5.4 3 .5 4.6.2 1.8-.3 3.7-1 5.4-1.3 1.7-.3 4-1 5.2-1.3a16 16 0 0 1 5-.6c3 0 3.9 1.8 3.8 3.7-.1 2-2 2.9-3.4 3.4-2.7 1-6.4.4-8.7.4l1 1c.5.4.7 1.2 1.3 1.4.7.3 1.7-.3 2.5-.3h2.8c.1-.2.4-.4.7-.5h.7c.3 0 .5.5.4 1.3 0 .2.3.3.5.4h1l.9.6a5 5 0 0 0-.8.3 2 2 0 0 0-.4.5c.4 0 .7 0 1 .2.4.2.6.4.8.7h-.7l-.5.5s1 0 1.3.3l.6.7a3 3 0 0 0-.8 0l-.4.3c.3.2.7.4 1 .8l.2 1-.6-.3h-.5l.2 1.5c0 .4.5.8.6 1l-.1 1c-.3.4-.8.5-1.3.4-.3-.1-.5-.2-.6-.4l-.4.7c-.3.3-.4.2-.8.2a1 1 0 0 1-.7-.3c-.2-.3-.4-.7-.4-1h-1a.9.9 0 0 1-.7-.4c-.2-.4-.2-.8 0-1.2.3-.3 1-.3 1.4-.5.3-.2.6-.5.9-1-.8-.6-1.5-1.3-2.1-2l-1-1.4-2.6.8a12 12 0 0 1-3.6 0c-2.7 0-4.5-4.6-7-5.6-.6-.3-1.3-.3-1.8-.1-2.8.7-5.8 4.6-8.6 5.5l-3.6.4-.7 1.2-1.4.3-.6 1.6a4 4 0 0 1-1.2.9c.1-.5.1-1.1 0-1.6l-.8 1.3-1.2.9c.2-.5.2-1 0-1.5l-.7 1.2-1.1.7c.2-.5.2-1 0-1.5a5 5 0 0 1-.7 1.2l-1.4 1a3 3 0 0 0 .2-1.7h-.7c-.8 0-1 .9-1.3 1.3-.4.3-1 .3-1.3.2-.5-.2-1-1-.4-2-.9.1-1.7-.6-1.6-1.4 0-.8.2-1.4 1.3-1.3v-1c0-.4.3-.8.7-.8.3 0 .5.2.7.4.3.3.3.8.7 1 .5.4 1 .5 1.5.5 1-.8 2.2-1.4 3.5-2l2.8-.7v-6.2h1.9c1.8.2 3.7.4 5.5.8l2.8-.2 7-1.2a19 19 0 0 1 3.4-.1c1.8 0 3.2.6 4.9.7l3.6.2c2-.2 5.4 0 6.5-2.1a1.7 1.7 0 0 0-2-2.3c-.4 0-1 .4-1 .8 0 .3 0 .6.2.8l.7.6c-.5 0-1 0-1.3-.2-.4-.5-.6-1-.7-1.5-.3.3-.4.6-.3 1 0 .4 0 .8.3 1-.5 0-1-.2-1.3-.5a3 3 0 0 1-.5-1.5c-.3.3-.4.7-.4 1l.2 1.3c-.5-.2-1-.5-1.2-.8a5 5 0 0 1-.4-1.5l-5 1a47 47 0 0 1-5.4 1.3 11 11 0 0 1-6.4-.6c-.8-.3-1.4-1-1.5-1.8-.2-.7 0-1.4.5-2a5 5 0 0 1 2.8-1.6c1.6-.5 3.3-.9 5-1.1a16 16 0 0 1 5.3.3c.6 0 1.3 0 1.9-.4.3-.4.3-1 0-1.3.5 0 .9.4 1 .9v1Z"/>
  <path fill="gold" d="m271.6 122.4-1.4 2a6 6 0 0 1-2.6.9c-1 0-1.8 0-2.6-.2l-2.5-.8.7 1.6c-.5-.2-1-.2-1.5-.1l-1.5.7c-.6.2-1.5 0-2.1-.1-.7-.1-1-.5-1.5-.3l-.6.2 1.9 1 1.8.3 1-.2 1.4-.8h1l.3.4v.8l.7-.6.2-.6-.2-1 1.3.4 1.7.2 1.8-.4 1.6-.7.7-1 .4-1.7Zm4.7 4.9c-.5 0-.9 0-1.2.3a2 2 0 0 0-.5 1.7c-.3-.7-.6-1.3-.7-2-.6.7-.7 1.7-.8 2.5-.4-.8-.6-1.5-.8-2.3-.6.5-1 1.2-1.2 2a4 4 0 0 1-.4-1.8h-.3c-2.2.4-7.3 2-11.2 2.5-2.2.2-4.6 0-6-1-.6-.5-1-1.1-1-1.8l-.3 1 .7 1.2 1.4.8 2.8.7 3-.3 1.7-.2 8.8-2 .2 1 .6.8.8.4-.3-1v-.7l.5-.5.4 1.3.6.5.9.2-.4-.6v-.8l.2-.6.5 1 .5.5h1l-.6-.7-.2-.7.5-.5 1-.3.8.3.7.6v1.6c1.5-1.3 0-3.2-1.7-3.1Zm1.7 3Zm1.3-1.6a4 4 0 0 1-1 2.5c-2.6 2.9-8.6 2-11.5 1l-1.3-.3a14 14 0 0 0-.6-.3c-.7-.1-1.3-.2-2-.1h-3.3l-7 1.3-2.8.2a40.7 40.7 0 0 0-7.3-.7v1l2.5.6h-.3l-1.8 3-.3-1.4-.2 2.4-.3.6-2.1.5-2.1 1-1.7 1-1.6-.3-.7-1.2.6 1.8c.4.5 1.8.6 1.8.6l3-2a9 9 0 0 1 1.4-.4c.3.4.8.7 1.4 1 0-1.4.8-1.4 2-2.1l.2.9s2.3-.8 3-1.6l1-1.6v-2h1.6c2.4 0 5-1.1 7.3-1.4 2-.3 4-.7 5.7-.3 1.5.2 2 .8 3.3 1.7 1 .8 2 3 3.5 3l1.3-.2c.7-.1 1-.4 1.8-.4h2c.7-.8 1-.8 1-.7.5.3.6.8.2 1.3.4.4 1 .7 1.7.6-.3.3-.6.7-.8 1.2.5-.1 1 0 1.5.2a3 3 0 0 0-.7 1.2c.4 0 .9 0 1.4.2-.4.2-.7.3-.8.7.5.2.8.5 1.2.8-.5 0-.8 0-1 .4l1 1.5-.2-1.4h.5l.6.5a3 3 0 0 0-.3-1l-1-1 .5-.1h.8l-.6-.8c-.4-.3-1.3-.3-1.3-.3l.5-.4c.2-.1.4-.2.7-.1l-.7-.7-1.1-.2c0-.2.2-.3.4-.5l.8-.3-1-.5h-1a1 1 0 0 1-.4-.5c0-.8-.1-1.2-.4-1.3h-.7c-.3 0-.6.3-.7.6l-2.8-.1c-.8 0-1.8.6-2.5.3-.6-.2-.8-1-1.2-1.4l-1.1-1v-.1h6.9c2-.3 4.2-.8 5-3.2v-1.7Zm-20 4.5c-.7 0-1.4.2-2 .5-1.7.8-3.2 1.9-4.6 3l-2.8 1.8c-1.4.3-2.8.6-4.1.6 0 0-.4 1.4-1 1.7-.3.2-1.4-.3-1.4-.3v1.2l-.4 1.2a4 4 0 0 0-.3-1l-.8-.7-.3 1.2-.8 1.3-.1-.8-.7-1-.3 1.2a9 9 0 0 1-.6 1l-.1-.5-.7-1.1-.7 1.3a8 8 0 0 1-.5.7c0-.4-.2-.7-.3-1a1 1 0 0 0-1-.3c-.8 0-1.2 1-1.8 1.9-.1 0-.4.2-.3 0v-.7a.5.5 0 0 0-.6-.2c-.3.2.6-1.2.6-1.2h-1.4c-.3-.1.2 0 0-.8 0-.7-.5-.6-.3-.7.4 0 .8 0 1.2.2 0 0-.4-.4-.2-.7 0-.1.5-.4.5-.8s-.1-.8-.4-1c-.1.5-.7.4-.8.9v.9c-1 0-1.2.6-1.2 1.3 0 .8.7 1.5 1.6 1.4-.6 1-.1 1.8.4 2 .4.1.9 0 1.3-.2.4-.4.5-1.3 1.3-1.3h.7c0 .5 0 1-.2 1.6l1.4-1 .7-1.1c.2.5.2 1 0 1.5l1-.7.8-1.2c.2.5.2 1 0 1.5l1.2-1 .9-1.2c.1.5.1 1 0 1.6a4 4 0 0 0 1-1c.4-.4.5-1 .7-1.5.5 0 1 0 1.4-.3l.7-1.2c1.2 0 2.4-.2 3.6-.4 2.8-1 5.8-4.8 8.6-5.5.6-.3 1.3-.3 1.9 0 2.4 1 4.2 5.7 6.9 5.7 1.2 0 1.9.3 3.6 0l2.6-.8 1 1.4c.6.7 1.2 1.4 2 2l-.8 1c-.4.2-1 .2-1.3.5-.3.3-.3.8-.1 1.2.2.3.5.5.8.5l.9-.2c0 .4.2.7.4 1 .2.3.4.5.7.5.3 0 .6 0 .8-.3l.4-.7.6.4c.4.2 1 0 1.3-.4.2-.4 0-1.2-.2-1.6v1a.8.8 0 0 0-1.4 0c-.3 0-.5-.3-.5-.6l-.2 1c-.1 0 0 .3-.3.5 0-1-.6-1-1-.8-.2-.3-.2-.5-.2-.8-.3 0-.6.2-.8.3-.2 0-.1-.1-.2-.4 0-.3-.4-.2-.4-.3l1.4-.7c.4-.3.7-.7.9-1.2a16 16 0 0 1-2.3-2.2l-1.2-2.1c-1.4.4-2.9.8-4.3 1-1.1 0-2.2-.1-3.1-.5-1.5-.8-2.5-2.8-3.8-4-1-.6-1.6-1.3-2.7-1.5h-.3Z"/>
  <path fill="none" stroke="#806600" stroke-miterlimit="103.2" stroke-width=".2" d="M268.6 124.2c.5 0 1.8-.3 2.3-1l.7-.8c0 1.3-.8 2.6-2 3.2-1.2.5-2.4.7-3.6.5l-2-.5c.7 1 .3 1.6-.7 2 0 0 .2-1-.1-1-.6-.2-1.3 0-2 .6a3 3 0 0 1-1.6.4c-.7 0-1.4 0-2-.3-.5-.2-1.3-1-1.7-1-.7.3-1.6.4-2 1a1 1 0 0 0 0 .9c.3.5.8.9 1.5 1 1.5.4 3 .5 4.6.2 1.8-.3 3.7-1 5.4-1.3 1.7-.3 4-1 5.2-1.3a16 16 0 0 1 5-.6c3 0 3.9 1.8 3.8 3.7-.1 2-2 2.9-3.4 3.4-2.7 1-6.4.4-8.7.4l1 1c.5.4.7 1.2 1.3 1.4.7.3 1.7-.3 2.5-.3h2.8c.1-.2.4-.4.7-.5h.7c.3 0 .5.5.4 1.3 0 .2.3.3.5.4h1l.9.6a5 5 0 0 0-.8.3 2 2 0 0 0-.4.5c.4 0 .7 0 1 .2.4.2.6.4.8.7h-.7l-.5.5s1 0 1.3.3l.6.7a3 3 0 0 0-.8 0l-.4.3 1 .8.2 1-.6-.3h-.5l.2 1.5c0 .4.5.8.6 1l-.1 1c-.3.4-.8.5-1.3.4-.3-.1-.5-.2-.6-.4l-.4.7c-.2.2-.5.3-.8.3a1 1 0 0 1-.7-.4c-.2-.3-.4-.7-.4-1h-1a.9.9 0 0 1-.7-.4c-.2-.4-.2-.8 0-1.2.3-.3 1-.3 1.4-.5.3-.2.6-.5.9-1-.8-.6-1.5-1.3-2.1-2l-1-1.4-2.6.8a12 12 0 0 1-3.6 0c-2.7 0-4.5-4.6-7-5.6-.6-.3-1.3-.3-1.8-.1-2.8.7-5.8 4.6-8.6 5.5l-3.6.4-.7 1.2-1.4.3-.6 1.6a4 4 0 0 1-1.2.9c.1-.5.1-1.1 0-1.6l-.8 1.3-1.2.9c.2-.5.2-1 0-1.5l-.7 1.2-1.1.7c.2-.5.2-1 0-1.5a5 5 0 0 1-.7 1.2l-1.4 1a3 3 0 0 0 .2-1.7h-.7c-.8 0-1 .9-1.3 1.3-.4.3-1 .3-1.3.2-.5-.2-1-1-.4-2-.9.1-1.7-.6-1.6-1.4 0-.7.2-1.4 1.3-1.3v-1c0-.4.3-.8.7-.8.3 0 .5.2.7.4.3.3.3.8.7 1 .5.4 1 .5 1.5.5 1-.8 2.2-1.4 3.5-2l2.8-.7v-6.2h1.9c1.8.2 3.7.4 5.5.8l2.8-.2 7-1.2a19 19 0 0 1 3.4-.1c1.8 0 3.2.6 4.9.7l3.6.2c2-.2 5.4 0 6.5-2.1a1.7 1.7 0 0 0-2-2.3c-.4 0-1 .4-1 .8 0 .3 0 .5.2.7l.7.7c-.5 0-1 0-1.4-.3-.3-.4-.6-1-.6-1.4-.3.3-.4.6-.3 1 0 .4 0 .8.3 1-.5 0-1-.2-1.3-.5a3 3 0 0 1-.5-1.5c-.3.3-.4.7-.4 1l.2 1.3c-.5-.2-1-.5-1.2-.8a5 5 0 0 1-.4-1.5c-1 .3-3 .6-5 1.2l-5.4 1a11 11 0 0 1-6.4-.5c-.8-.3-1.4-1-1.5-1.8-.2-.7 0-1.4.5-2a5 5 0 0 1 2.8-1.6c1.6-.5 3.3-.9 5-1.1a16 16 0 0 1 5.3.3c.6 0 1.3 0 1.9-.4.3-.4.3-1 0-1.3.5 0 .9.4 1 .9v1Z"/>
  <path fill="gold" d="M247.4 133c.7.5 1.5 0 1.6-.1-.3-.2-.5-.5-.5-.8-.2-.4-.2-.9-.2-1.3 0-1.1.4-1.3.4-1.2a5 5 0 0 0 1-.5c.3-.3.5-.6.5-1v-1.3c-1.1-.1-1.4 0-1.7.4l-.1-1-.5-1-.3-.3c0 .3-.3.5-.4.7l-.4-1.4c-.3-.8-1.2-1-1.8-.6-.5.2-.8.6-1.1 1-.1-.3-.1-.6 0-.8h-.5a3.3 3.3 0 0 0-1.5 1.4c0-.4-.2-.6-1.1-1.2-.4.3-.6.6-.8 1-.2.3-.3.8-.1 1.2 0 .3.3.7.6 1 0 0 .3.3-.3 1.2l-1 1-.8.4c.3.6.3.8 1.2 1-2 1.5-2.3 3.9-.7 5.9l.7-1c0 .6.2 1.3.6 1.8.2.2.3 1.3.6 1.6l.6.7s.3-1 .7-1l1.4-.5c.5-.3 1-.7 1.4-1.2l-.1 1.3c2.7-1 3.3-2.8 2.6-5.4Z"/>
  <path fill="#504416" d="M242 129.7c.1.9 0 1.8-.4 2.7l1.7.7 1.8.2c-.1-.7.6-2 1-2.6h-1.5l-.5-.5-1.1.2-1-.7Z"/>
  <path fill="#fff" d="M242.5 130c-.2.5-.2 1 0 1.4l.4-1-.4-.3Zm2.5.9-.2 1.2c.4-.3.6-.7.7-1.1h-.5v-.1Zm-2.6.9c-.3.3-.6.7-.6 1h.5v-1Zm2.3.6-.6 1 .5.3c.2-.4.2-.8 0-1.3Zm-2-5.8c-.4 0-.6 0-.7.3-.1.4 0 .8.7 1 .4 0 .9-.2 1-.6.2-.3-.2-.5-.7-.7h-.4Zm3.6 1c-.2 0-.4 0-.5.3 0 .4.2.8.7 1 .5.2 1 0 1-.4.2-.3-.1-.6-.6-.8h-.6v-.1Z"/>
  <path fill="#d1b948" d="M242.6 126.5a1 1 0 0 0-.3 0c-.2 0-.4.2-.4.4v.6l.7.4c.5.2 1 0 1.3-.5 0-.2 0-.5-.2-.6a2 2 0 0 0-.7-.3h-.4Zm0 0 .4.2.6.3s.2.2 0 .3c-.1.4-.5.6-1 .4a1 1 0 0 1-.4-.3c-.1-.1-.2-.3-.1-.4 0-.2.1-.3.3-.3h.2v-.1Zm3.7 1h-.1c-.3 0-.5.2-.5.4-.1.5.2 1 .8 1h.7c.2 0 .3-.2.4-.4v-.5l-.7-.4h-.6Zm0 .2h.5l.6.4v.4l-.2.3a1 1 0 0 1-.7 0 .8.8 0 0 1-.6-1l.3-.1Z"/>
  <path fill="gold" d="M242.6 125.8c-.3 0-.5 0-.6.2l-.2.4h.8l1 .5h1l-1-.4c-.2-.2-.5-.7-1-.7Zm4.9 1.3h-2.1l.9.6h1l.4.2.3.2v-.4c0-.3-.3-.5-.5-.6Zm-6 5.4c-1 2.3 2.8 3.4 3.3.9a8 8 0 0 1-3.2-1Z"/>
  <path fill="#806600" d="m241.6 132.2-.1.2c-.3.5-.3 1 0 1.6a2 2 0 0 0 3.6-.6v-.2h-.1c-1.2 0-2.3-.4-3.3-1h-.1Zm0 .3c1 .5 2.1.8 3.3 1-.2.4-.4.8-.7 1a2 2 0 0 1-1.5.2c-.5-.3-.8-.6-1-1-.2-.4-.2-.8 0-1.2h-.1Z"/>
  <path fill="#377bc8" stroke="#2c5aa0" stroke-miterlimit="103.2" stroke-width=".2" d="M243.2 130.4c-.6 1.5-.8 3.2-.6 4.9 1-1.3 1.7-2.8 2-4.4l-.2-.3-.3-.4-.5.3h-.4v-.1Z"/>
  <path fill="gold" d="m246 123.4-1 .2c-.5.2-1 .6-1.2 1v-.8h-.4a3.3 3.3 0 0 0-1.5 1.4c.3 0 1-.7 1.4-.6.2 0 0 .7.3.8.3 0 .6-.5 1-1 .4-.2 1-.5 1.2-.4.4.2.6.6.7 1 0 .6.3 1.2.5 1.3.3.2.5-.5.8-.4.3 0 .4 1 .7 1.3a5 5 0 0 0-.2-1l-.4-1-.4-.3c0 .3-.2.5-.4.7l-.3-1.5-.8-.7Zm-4.5 4c-.4.6 0 1.2.9 1.4l-.3.7.4.9.8.2.8-.3.5.7.7.2.9-.6.3-.6h.6l.5-.2v-.6c-.4.4-1.2.5-1.7.2 0 .3-.1.7-.3 1-.2.2-.4.2-.7 0-.3 0-.6-.3-.7-.5-.4.2-.6.3-.8.2a1 1 0 0 1-.8-.6 1 1 0 0 1 .3-1c-1.6-.4-1-1-1.4-1.2Zm-1 .2-1.2 1.8-1 .4c.4.6.4.8 1.3 1-2 1.5-2.3 3.9-.7 5.9l.7-1c0 .6.2 1.3.6 1.8.2.2.3 1.3.6 1.6l.6.7s.3-1 .7-1l1.4-.5c.5-.3 1-.7 1.4-1.2l-.1 1.3c2.7-1 3.3-2.8 2.6-5.4.7.5 1.5 0 1.6-.1-.3-.2-.5-.5-.5-.8-.2-.4-.2-.9-.2-1.3l-.1-1-.4 1.3v1.2c-.5-.1-1-.3-1.3-.6l.6 2.7a5 5 0 0 1-.3 1.8l-1.2 1.2.2-1.6-.2-2-.6 1.9-.8 1.4c0-1.4 0-1.5-.2-2-.1.8-.5 1.7-1 2.5l-1 .5c-.2 0-.4.2-.5.4l-.5-1.2-.8-1.6c-.2-.8.8-2.5.8-2.5-.4 0-.8.5-1.2 1l-1 1.2a11 11 0 0 1-.3-1.7c0-.5.2-1 .5-1.4.7-.9 1.5-1.7 2.4-2.3a3 3 0 0 1-2 0l.9-1 .3-1.4Zm3.7.7h-1v.4l.5.2.5.7 1.3-.4v-.2c-.2-.3-.6-.5-1-.6h-.3v-.1Z"/>
  <path fill="none" stroke="#806600" stroke-miterlimit="103.2" stroke-width=".2" d="M247.4 133c.7.5 1.5 0 1.6-.1-.3-.2-.5-.5-.5-.8-.2-.4-.2-.9-.2-1.3 0-1.1.4-1.3.4-1.2a5 5 0 0 0 1-.5c.3-.3.5-.6.5-1v-1.3c-1.1-.1-1.4 0-1.7.4l-.1-1-.5-1-.3-.3c0 .3-.3.5-.4.7a1.7 1.7 0 0 0-3.3-1c-.1-.3-.1-.6 0-.8h-.5a3.3 3.3 0 0 0-1.5 1.4c0-.4-.2-.6-1.1-1.2-.4.3-.6.6-.8 1-.2.3-.3.8-.1 1.2 0 .3.3.7.6 1 0 0 .3.3-.3 1.2l-1 1-.8.4c.3.6.3.8 1.2 1-2 1.5-2.3 3.9-.7 5.9l.7-1c0 .6.2 1.3.6 1.8.2.2.3 1.3.6 1.6l.6.7s.3-1 .7-1l1.4-.5c.5-.3 1-.7 1.4-1.2l-.1 1.3c2.7-1 3.3-2.8 2.6-5.4Z"/>
  <path fill="#806600" d="M240.8 124.8c-.3.3-.4.6-.4 1 0 .5.4.9.6 1.2l.4-1.5c0-.4-.6-.7-.6-.7Zm1.4 1.4h-.2c-.2 0-.3.2-.3.5l.5-.2h.2l.8.4h1.3l-.2.5-.6.4-.2.2-.2.3v.5c.4 0 .6.4.6.7h.7c.3-.1.6-.2.9-.1h.2l.2-.4-.1-.3v-.3l-.3-.8v-.5c.4.3.7.6 1.2.8h1.1l.3.6-.1-.6c-.1-.2-.2-.1-.4-.2h-1l-1-.8h-.1c-.2.3-.2.6-.2.9l.2.8v.6c-.3 0-.7 0-1 .3h-.1c-.2-.5-.5-.8-1-1v-.1l.2-.1.3-.3.6-.4c.2-.3.3-.5.3-.8v-.2h-.2c-.4 0-.8.2-1.2 0l-.8-.3h-.3v-.1Zm-.7 1a1 1 0 0 0-.1 1c0 .4.4.6.7.7l-.1.6c0 .4.2.8.5 1l.9.3.6-.2c0 .2.2.3.4.4.2.2.5.3.9.3.5 0 1-.5 1-1v-.2h1c.4-.3.6-.7.5-1.1-.2 0 0 .5-.6.9h-.8l-.2-.3v.7l-.2.4c-.2.2-.5.4-.8.4a1 1 0 0 1-.6-.2c-.2-.2-.4-.3-.4-.5v-.3l-.2.2h-.3a1 1 0 0 1-.4.2 1 1 0 0 1-.6-.2c-.3-.2-.5-.5-.5-.8v-.4l.2-.3.2-.2h-.3a1 1 0 0 1-.7-.4c-.4-.4 0-.7 0-1h-.1Zm8.2 0s-.7 0-1 .4a6 6 0 0 0-.5 1.5l1.2-.6.3-1.2Z"/>
  <path fill="#2b2200" d="M242.9 126.8a.4.4 0 1 0 .3.7.4.4 0 0 0-.3-.7Zm3.7 1a.4.4 0 1 0 0 .8.4.4 0 1 0 0-.7v-.1Z"/>
  <path fill="#377bc8" stroke="#2c5aa0" stroke-miterlimit="103.2" stroke-width=".2" d="M232.8 139.3c-.2 0-.6-.2-1.4.7.5-.1 1 .1 1.3.6.2 0 .4-.1.5-.3.2-.4 0-.9-.4-1Zm19 1c-.7 0-1.3.3-1.7.8.6-.1 1.2.1 1.6.6.2 0 .4-.2.6-.4 0-.4 0-.8-.4-1h-.1Zm-20.3 1.5c-.2.2-.6 0-1.1 1.3.4-.3 1-.3 1.4 0 .2-.1.3-.4.4-.6 0-.4-.3-.8-.7-.7Zm20.9 1.8c-.3.3-.8.2-1.3 1.4.5-.4 1.1-.4 1.7-.1.2-.2.4-.4.4-.7 0-.4-.5-.7-.8-.6Zm-19.4 1h-.3c-.4.6-.6 1.2-.5 1.9.4-.6.6-.8 1.2-.8.1-.3.1-.6 0-.8-.1-.2-.3-.3-.4-.3Zm41.4 0-.2.2a2 2 0 0 0-.6 1.8c.2-.5.7-.7 1.2-.7.2-.2.2-.5.2-.7 0-.3-.3-.5-.6-.5Zm-19.2 1h-.4c-.5.7-.6 1.4-.4 2 .2-.5.7-.9 1.4-1a.7.7 0 0 0-.6-1Zm24 0-.5.5c0 .7 0 1.3.5 1.9 0-.6 0-1.2.6-1.6 0-.3-.1-.5-.3-.6l-.2-.1h-.1Zm-2.6.5c-.2 0-.3 0-.4.2a3 3 0 0 0 0 2c0-.6.4-1.1 1-1.3 0-.3 0-.5-.2-.7-.1-.2-.3-.2-.4-.2Z"/>
  <path fill="gold" stroke="#806600" stroke-linecap="round" stroke-linejoin="round" stroke-width=".4" d="M308.3 16.6v-.3l.6-1.3c-2.2-.3-4.4.3-6 1.8-1 1-1.9 2-2.6 3.2-.4 1-.6 2-.7 3l-1.7-1.5c-.4-.2-.8-.4-1.2-.4-1.1 0-2.1.5-2.9 1.3-.7.8-1.1 1.7-1.3 2.7-.3 1.4.1 2.9-.9 4l-1.3 1.7a7 7 0 0 0 2.4.6c1-.1 1.9-.6 2.5-1.4.6-.7.8-1.7 1.6-2.2.3-.2.7-.3 1.1-.2.5.2.5 1 .3 1.5l-1 3-1.5-.4-1.2.7-.6.2 1.2 1.7.4.1-.4.2-3 1.5-.3.1-2 .2c-.5 0-1 0-1.5-.2l-2-.8-.8-.4-1.2-1a9.9 9.9 0 0 1-1.8-3.9 5.2 5.2 0 0 0 4.4-5.2v-1c0-.3-.2-.5-.3-.8l-.3-.6a6 6 0 0 0-.6-.9l-.3-.4c-.8-.8-2-1.3-3.1-1.4h-1.2a5 5 0 0 0-2.9 1.4 5 5 0 0 0-1.1 2l-.2.6-.2 1.1c0 2 1.1 3.8 2.9 4.7-.7.9-1.5 1.7-2.4 2.4a13 13 0 0 1-7.7 3.5c-3 .4-7-.5-9.5-2.7a9.6 9.6 0 0 1-2-2.5h1.1l1.5-1.3-.4-.4-1-1h-.5l.3-3.3c0-.5.4-1.4 1-1.4.4 0 .9.3 1.1.7.7.8.5 1.9.8 2.8.4 1 1.2 1.9 2.2 2.3 1 .3 1.9.5 2.9.4l-.8-2.2c-.6-1.5.4-2.8.7-4.4a5 5 0 0 0-.2-3.2 5 5 0 0 0-2.7-2.5h-1.4l-2.6.7s.7-2.2.5-3.1a13 13 0 0 0-1.4-4.3 25 25 0 0 0-3.1-3.4 20 20 0 0 0-3.2 3.4 13 13 0 0 0-1.4 4.3c-.2 1 .5 3.1.5 3.1l-2.5-.7H248a5 5 0 0 0-2.7 2.5c-.4 1-.5 2.1-.3 3.2.3 1.6 1.4 2.9.8 4.4l-.8 2.2c1 0 2 0 2.9-.4 1-.5 1.7-1.3 2.1-2.3.4-.9.2-2 .8-2.8.3-.4.7-.7 1.2-.7.6 0 1 .9 1 1.4l.3 3.3h-.5l-1.5 1.4 1.4 1.3h1.2c-.5 1-1.2 1.8-2 2.5-2.6 2.2-6.6 3-9.6 2.6-3-.3-5.6-1.5-7.8-3.5l-2.2-2.3c1.9-.9 3-2.7 3-4.8 0-1.4-.5-2.7-1.5-3.7a5.1 5.1 0 0 0-2.9-1.4h-.5a4.9 4.9 0 0 0-3.8 1.4 6 6 0 0 0-1.1 1.9c-.2.2-.2.5-.3.8v1c0 2.5 1.7 4.7 4.1 5.2-.4 1.4-1 2.7-1.9 3.9l-1.1 1.1-.7.4-2 .8-1.5.2-2-.2h-.4l-3-1.6-.3-.2h.4l1-1.8h.1l-.5-.2-1.3-.7-1.5.3-1-3c-.1-.4-.1-1.2.3-1.4.4-.2.9 0 1.2.2.8.5 1 1.5 1.6 2.2.6.8 1.4 1.3 2.4 1.4a7 7 0 0 0 2.4-.6l-1.4-1.7c-1-1.1-.5-2.6-.9-4a4.3 4.3 0 0 0-4.2-4c-.4 0-.8.2-1.1.4l-1.7 1.4c0-1-.3-2-.7-2.9-.7-1.2-1.6-2.3-2.6-3.2a7.7 7.7 0 0 0-6-1.8l.6 1.3v.3h.1L211 33l-1 .3-1 1.6 1.7 1 2.1-.5 1.9 5-1.9.3c-.3.5-.5.5-.5.9 0 .3 0 .6.3.9l.3.2.5.3.8-.1.1 1.1v1.6l-1.1 2.5 1.8 2.1.7 1.8.2 1.3c-.4.5-.6.5-.5.9 0 .3 0 .6.3.9l.6.5c3.4-.5 7.3-.9 11-1.2l3.5-.2c6.3-.4 12.7-.5 19-.6H262a303.6 303.6 0 0 1 21 .7l2 .2 4.8.4 5.6.7.4-.2.5-.6v-.6c.1-.4-.1-.5-.4-.9l.1-1.3.8-1.8 1.8-2.1-1-2.5-.3-1.7.3-1.1h.8l.4-.1c.5-.4.7-.8.6-1.2 0-.4-.2-.5-.5-.9l-2-.2 1.9-5.2 2.3.6 1.7-1-1-1.6-1-.3 7.3-16.3h.2Z"/>
</svg>
